<svg width="163" height="70" viewBox="0 0 163 70" fill="none" xmlns="http://www.w3.org/2000/svg">
<rect width="163" height="56" fill="#CC0C00"/>
<path fill-rule="evenodd" clip-rule="evenodd" d="M65.8454 16.4461C64.2461 17.2387 62.947 17.912 62.9584 17.9423C62.9698 17.9727 63.3236 18.7089 63.7445 19.5783C64.4237 20.9811 64.5241 21.1554 64.6364 21.1272C64.8781 21.0664 70.4043 18.3418 70.4275 18.272C70.461 18.1712 68.8999 14.9939 68.8198 15C68.7831 15.0028 67.4446 15.6536 65.8454 16.4461ZM10 17.7965V19.6129H11.5971H13.1941V28.0483V36.4838H11.5971H10V38.3002V40.1166H15.4361H20.8722V38.3093V36.5021L20.3655 36.4625C20.0868 36.4408 19.3542 36.4228 18.7377 36.4226L17.6167 36.4223L17.6168 32.9896C17.6169 29.2903 17.6757 25.5833 17.7342 25.5888C17.754 25.5907 20.3808 29.0132 23.5714 33.1944C28.183 39.2379 29.3877 40.7806 29.4469 40.7183C29.4879 40.6753 31.6974 37.2042 34.357 33.005C37.0167 28.8057 39.2308 25.3292 39.2773 25.2794C39.3491 25.2026 39.3595 26.0368 39.3462 30.821L39.3305 36.453L37.8716 36.4695L36.4128 36.486V38.3013V40.1166H45.6573H54.9018V38.3092V36.5016L54.4871 36.4624C54.2591 36.4408 53.6234 36.4229 53.0744 36.4227L52.0762 36.4223V28.0176V19.6129H53.489H54.9018V17.7965V15.9801H47.4443H39.9868L36.9656 20.7212C35.3039 23.3288 33.9241 25.4623 33.8992 25.4623C33.8743 25.4623 32.2115 23.3306 30.204 20.7251L26.5541 15.9879L18.277 15.984L10 15.9801V17.7965ZM105.639 17.7965V19.6129H107.205H108.772V28.0483V36.4838H107.205H105.639V38.3002V40.1166H115.037H124.435V38.3093V36.5019L123.965 36.4621C123.707 36.4402 123.015 36.4223 122.429 36.4223H121.364V26.2012V15.9801H113.501H105.639V17.7965ZM89.8372 21.5256C87.1351 21.6884 84.1242 22.392 82.1762 23.3156C81.261 23.7495 80.415 24.3369 79.6699 25.0556C78.3786 26.3012 77.635 27.5305 77.2538 29.05C77.0732 29.7697 77.0212 31.6502 77.1581 32.5145C77.3027 33.4283 77.53 34.1509 77.9321 34.9753C78.3836 35.9012 78.8873 36.6131 79.5784 37.3022C80.3237 38.0454 80.9583 38.5046 81.9332 39.006C83.7509 39.941 85.5846 40.493 88.0099 40.835C88.9856 40.9726 92.5864 40.9937 93.5996 40.8676C95.2313 40.6647 96.9542 40.2954 98.0072 39.9229C100.37 39.0871 102.709 37.0325 103.833 34.806L104.104 34.2672H100.485H96.8649L96.8224 34.4673C96.7991 34.5773 96.6891 34.8662 96.5779 35.1092C95.8636 36.6714 94.6205 37.4894 92.9546 37.4937C91.8942 37.4964 91.0649 37.1378 90.2555 36.3263C89.7493 35.819 89.429 35.2999 89.1958 34.6088C89.05 34.1767 89.0283 34.0148 89.026 33.3436L89.0234 32.5739L96.8338 32.5583L104.644 32.5427L104.689 31.881C104.93 28.3529 103.741 25.8128 100.985 23.9668C98.3036 22.1705 94.1668 21.2646 89.8372 21.5256ZM138.348 21.5243C135.506 21.6871 132.176 22.4421 130.428 23.3202C129.297 23.8879 128.454 24.5136 127.557 25.451C125.955 27.1241 125.331 28.7374 125.337 31.1886C125.344 33.5743 126.21 35.6743 127.876 37.3445C128.593 38.0627 129.21 38.5089 130.211 39.032C132.434 40.194 134.962 40.8243 137.995 40.9729C141.551 41.1473 145.539 40.4657 147.592 39.3326C149.382 38.3449 151.131 36.6189 152.077 34.9063C152.254 34.586 152.384 34.3083 152.364 34.2893C152.345 34.2703 150.709 34.2783 148.728 34.3071L145.125 34.3596L144.975 34.79C144.752 35.4301 144.484 35.8432 143.937 36.3917C143.132 37.1991 142.427 37.4875 141.265 37.4838C140.154 37.4803 139.298 37.109 138.485 36.2787C137.741 35.5193 137.343 34.5899 137.288 33.4869C137.271 33.1423 137.275 32.7891 137.297 32.7018L137.337 32.5432H145.127H152.918L152.958 32.1275C153.066 30.9817 152.962 29.4891 152.71 28.5742C152.538 27.9458 152.157 27.0704 151.817 26.5214C151.334 25.7411 150.189 24.5745 149.375 24.0328C147.195 22.5825 144.336 21.7207 141.05 21.5238C139.91 21.4555 139.548 21.4555 138.348 21.5243ZM57.4202 23.8217V25.6292L57.8348 25.6684C58.0628 25.69 58.74 25.7079 59.3397 25.7081L60.43 25.7086L60.4299 29.757C60.4298 31.9836 60.4116 34.408 60.3893 35.1446L60.349 36.4838H58.8846H57.4202V38.3002V40.1166H66.8796H76.3391V38.3093V36.5019L75.8691 36.4621C75.6107 36.4402 74.892 36.4223 74.2721 36.4223H73.145V29.2182V22.0142H65.2826H57.4202V23.8217ZM90.559 24.4982C90.1344 24.6088 89.8826 24.7517 89.5837 25.0517C89.0974 25.5397 89.0872 25.5872 89.0666 27.448L89.0485 29.0951H91.1679H93.2874L93.3053 27.879C93.3268 26.4163 93.2827 25.9696 93.0748 25.5437C92.6716 24.7175 91.5335 24.2445 90.559 24.4982ZM138.884 24.4809C138.51 24.5548 138.032 24.8321 137.781 25.1217C137.372 25.5918 137.353 25.6876 137.313 27.4788L137.277 29.0951H139.385H141.494L141.533 28.7718C141.608 28.148 141.578 26.1757 141.489 25.8802C141.181 24.8538 140.055 24.2494 138.884 24.4809Z" fill="white"/>
<path d="M130.478 60.798H132.064V61.5C132.186 61.3267 132.298 61.1837 132.402 61.071C132.506 60.9583 132.623 60.8717 132.753 60.811C132.883 60.7417 133.026 60.694 133.182 60.668C133.347 60.642 133.538 60.629 133.754 60.629V62.293C132.723 62.293 132.207 62.8607 132.207 63.996V68H130.478V60.798ZM134.431 64.412C134.431 63.8833 134.531 63.3893 134.73 62.93C134.93 62.4707 135.203 62.072 135.549 61.734C135.896 61.3873 136.303 61.1187 136.771 60.928C137.248 60.7287 137.755 60.629 138.292 60.629C138.812 60.629 139.302 60.7287 139.761 60.928C140.229 61.1273 140.632 61.4003 140.97 61.747C141.317 62.085 141.59 62.4837 141.789 62.943C141.989 63.4023 142.088 63.892 142.088 64.412C142.088 64.932 141.989 65.4217 141.789 65.881C141.59 66.3317 141.317 66.726 140.97 67.064C140.624 67.402 140.216 67.6707 139.748 67.87C139.289 68.0693 138.795 68.169 138.266 68.169C137.738 68.169 137.239 68.0693 136.771 67.87C136.303 67.6707 135.896 67.402 135.549 67.064C135.203 66.726 134.93 66.3317 134.73 65.881C134.531 65.4217 134.431 64.932 134.431 64.412ZM138.253 66.583C138.539 66.583 138.808 66.5267 139.059 66.414C139.319 66.3013 139.545 66.1453 139.735 65.946C139.926 65.7467 140.073 65.517 140.177 65.257C140.29 64.9883 140.346 64.7067 140.346 64.412C140.346 64.1 140.29 63.814 140.177 63.554C140.073 63.2853 139.926 63.0513 139.735 62.852C139.545 62.6527 139.319 62.4967 139.059 62.384C138.799 62.2713 138.522 62.215 138.227 62.215C137.95 62.215 137.686 62.2757 137.434 62.397C137.183 62.5097 136.962 62.6657 136.771 62.865C136.589 63.0557 136.442 63.2853 136.329 63.554C136.225 63.814 136.173 64.0957 136.173 64.399C136.173 64.7023 136.225 64.9883 136.329 65.257C136.442 65.517 136.594 65.7467 136.784 65.946C136.975 66.1453 137.196 66.3013 137.447 66.414C137.699 66.5267 137.967 66.583 138.253 66.583ZM142.81 64.412C142.81 63.8833 142.91 63.3893 143.109 62.93C143.309 62.4707 143.582 62.072 143.928 61.734C144.275 61.3873 144.682 61.1187 145.15 60.928C145.627 60.7287 146.134 60.629 146.671 60.629C147.191 60.629 147.681 60.7287 148.14 60.928C148.608 61.1273 149.011 61.4003 149.349 61.747C149.696 62.085 149.969 62.4837 150.168 62.943C150.368 63.4023 150.467 63.892 150.467 64.412C150.467 64.932 150.368 65.4217 150.168 65.881C149.969 66.3317 149.696 66.726 149.349 67.064C149.003 67.402 148.595 67.6707 148.127 67.87C147.668 68.0693 147.174 68.169 146.645 68.169C146.117 68.169 145.618 68.0693 145.15 67.87C144.682 67.6707 144.275 67.402 143.928 67.064C143.582 66.726 143.309 66.3317 143.109 65.881C142.91 65.4217 142.81 64.932 142.81 64.412ZM146.632 66.583C146.918 66.583 147.187 66.5267 147.438 66.414C147.698 66.3013 147.924 66.1453 148.114 65.946C148.305 65.7467 148.452 65.517 148.556 65.257C148.669 64.9883 148.725 64.7067 148.725 64.412C148.725 64.1 148.669 63.814 148.556 63.554C148.452 63.2853 148.305 63.0513 148.114 62.852C147.924 62.6527 147.698 62.4967 147.438 62.384C147.178 62.2713 146.901 62.215 146.606 62.215C146.329 62.215 146.065 62.2757 145.813 62.397C145.562 62.5097 145.341 62.6657 145.15 62.865C144.968 63.0557 144.821 63.2853 144.708 63.554C144.604 63.814 144.552 64.0957 144.552 64.399C144.552 64.7023 144.604 64.9883 144.708 65.257C144.821 65.517 144.973 65.7467 145.163 65.946C145.354 66.1453 145.575 66.3013 145.826 66.414C146.078 66.5267 146.346 66.583 146.632 66.583ZM151.527 60.798H153.113V61.474C153.365 61.1707 153.633 60.954 153.919 60.824C154.205 60.694 154.561 60.629 154.985 60.629C155.488 60.629 155.904 60.7157 156.233 60.889C156.563 61.0623 156.853 61.3483 157.104 61.747C157.399 61.357 157.728 61.0753 158.092 60.902C158.456 60.72 158.894 60.629 159.405 60.629C161.355 60.629 162.33 61.6993 162.33 63.84V68H160.601V64.048C160.601 63.424 160.493 62.9647 160.276 62.67C160.06 62.3667 159.717 62.215 159.249 62.215C158.747 62.215 158.378 62.397 158.144 62.761C157.91 63.1163 157.793 63.6797 157.793 64.451V68H156.064V64.048C156.064 63.4067 155.952 62.943 155.726 62.657C155.51 62.3623 155.159 62.215 154.673 62.215C154.162 62.215 153.798 62.3883 153.581 62.735C153.365 63.073 153.256 63.645 153.256 64.451V68H151.527V60.798Z" fill="white"/>
</svg>
