<svg width="60" height="60" viewBox="0 0 60 60" fill="none" xmlns="http://www.w3.org/2000/svg">
<g filter="url(#filter0_i_376_409)">
<circle cx="30" cy="30" r="30" fill="#F59B00"/>
</g>
<path d="M44.1668 36.9698V41.2198C44.1684 41.6144 44.0876 42.0049 43.9295 42.3664C43.7714 42.7279 43.5396 43.0524 43.2489 43.3191C42.9582 43.5858 42.6149 43.7889 42.2412 43.9153C41.8674 44.0417 41.4714 44.0887 41.0784 44.0531C36.7191 43.5795 32.5317 42.0898 28.8526 39.704C25.4297 37.5289 22.5277 34.6269 20.3526 31.204C17.9584 27.5082 16.4685 23.3004 16.0034 18.9215C15.968 18.5297 16.0146 18.1349 16.1402 17.7621C16.2657 17.3893 16.4675 17.0468 16.7327 16.7563C16.9979 16.4658 17.3207 16.2337 17.6805 16.0747C18.0403 15.9158 18.4293 15.8335 18.8226 15.8331H23.0726C23.7601 15.8264 24.4266 16.0698 24.9479 16.5181C25.4692 16.9665 25.8097 17.589 25.9059 18.2698C26.0853 19.6299 26.418 20.9653 26.8976 22.2506C27.0882 22.7577 27.1295 23.3088 27.0165 23.8386C26.9035 24.3683 26.641 24.8546 26.2601 25.2398L24.4609 27.039C26.4776 30.5857 29.4143 33.5223 32.9609 35.539L34.7601 33.7398C35.1453 33.3589 35.6316 33.0964 36.1614 32.9834C36.6911 32.8705 37.2422 32.9117 37.7493 33.1023C39.0346 33.5819 40.37 33.9146 41.7301 34.094C42.4183 34.1911 43.0468 34.5377 43.496 35.0679C43.9453 35.5982 44.184 36.275 44.1668 36.9698Z" fill="#0A0C11"/>
<defs>
<filter id="filter0_i_376_409" x="0" y="0" width="63" height="63" filterUnits="userSpaceOnUse" color-interpolation-filters="sRGB">
<feFlood flood-opacity="0" result="BackgroundImageFix"/>
<feBlend mode="normal" in="SourceGraphic" in2="BackgroundImageFix" result="shape"/>
<feColorMatrix in="SourceAlpha" type="matrix" values="0 0 0 0 0 0 0 0 0 0 0 0 0 0 0 0 0 0 127 0" result="hardAlpha"/>
<feOffset dx="4" dy="4"/>
<feGaussianBlur stdDeviation="1.5"/>
<feComposite in2="hardAlpha" operator="arithmetic" k2="-1" k3="1"/>
<feColorMatrix type="matrix" values="0 0 0 0 0.0392157 0 0 0 0 0.0470588 0 0 0 0 0.0666667 0 0 0 0.2 0"/>
<feBlend mode="normal" in2="shape" result="effect1_innerShadow_376_409"/>
</filter>
</defs>
</svg>
