<svg width="26" height="26" viewBox="0 0 26 26" fill="none" xmlns="http://www.w3.org/2000/svg">
<path fill-rule="evenodd" clip-rule="evenodd" d="M11.2544 0.0866745C7.8554 0.546023 4.68324 2.39259 2.63814 5.10242C1.33617 6.82756 0.548213 8.64446 0.13464 10.8753C-0.0174017 11.6954 -0.0472413 13.7183 0.0789088 14.6549C0.417825 17.171 1.43469 19.4781 3.05862 21.4149C4.79697 23.4883 7.32067 25.0328 10.0063 25.6668C11.9527 26.1263 14.2503 26.1097 16.1728 25.6223C21.3716 24.3042 25.2214 19.9704 25.9111 14.6596C25.9604 14.2795 26 13.5381 26 12.9939C26 11.4505 25.8095 10.262 25.3325 8.83084C23.7663 4.13073 19.6196 0.731875 14.6581 0.0816246C13.812 -0.0292946 12.0935 -0.0267406 11.2544 0.0866745ZM11.7769 1.91478C7.70829 2.3822 4.24773 5.00195 2.70054 8.7858C2.15989 10.108 1.8983 11.4691 1.89732 12.9649C1.89563 15.5862 2.75146 17.9882 4.41039 20.0182C4.69712 20.3691 4.78989 20.4503 4.81851 20.3753C4.83888 20.3219 4.93578 20.0242 5.03383 19.7136C5.70713 17.5818 7.23237 15.8092 9.26424 14.7974C10.5673 14.1486 11.8438 13.8807 13.3444 13.9412C15.3053 14.0203 17.0376 14.709 18.5375 16.0056C19.7453 17.0498 20.7235 18.6494 21.124 20.2354L21.1864 20.4828L21.4101 20.2244C22.4676 19.0028 23.2764 17.4875 23.7049 15.925C24.8429 11.7753 23.4631 7.25922 20.2237 4.53157C18.1267 2.76592 15.5571 1.82795 12.8967 1.85726C12.5203 1.86138 12.0164 1.88727 11.7769 1.91478ZM12.2123 3.74469C11.1923 3.95666 10.483 4.31745 9.78179 4.98094C8.84643 5.86597 8.35309 7.02252 8.35216 8.3322C8.35129 9.60855 8.75679 10.6407 9.61744 11.5529C10.5181 12.5074 11.6663 12.9944 13.0143 12.9935C14.3242 12.9925 15.481 12.4993 16.3662 11.5641C17.1979 10.6855 17.5729 9.80421 17.6249 8.60598C17.6604 7.78509 17.5904 7.29956 17.3445 6.66191C16.793 5.2322 15.4773 4.10571 13.991 3.79077C13.6393 3.71625 12.4922 3.68653 12.2123 3.74469ZM12.5904 5.62945C11.4521 5.77165 10.4321 6.79651 10.2722 7.95869C9.97272 10.1338 12.2353 11.7833 14.1944 10.8182C15.5647 10.1432 16.1294 8.50209 15.4593 7.14232C14.9246 6.05745 13.8213 5.47563 12.5904 5.62945ZM12.2123 15.6098C9.15144 16.0263 6.81734 18.4452 6.55947 21.4681C6.53358 21.7714 6.51483 22.0229 6.51773 22.0272C6.577 22.1122 7.62638 22.7252 8.14857 22.9799C11.2292 24.4823 14.6862 24.4925 17.7947 23.0082C18.151 22.8381 18.6757 22.5484 18.9608 22.3645L19.4792 22.0301L19.458 21.7346C19.3314 19.9754 18.6819 18.5526 17.4761 17.3932C16.531 16.4843 15.4616 15.924 14.2179 15.6861C13.6453 15.5765 12.7167 15.5411 12.2123 15.6098Z" fill="#CC0C00"/>
<path fill-rule="evenodd" clip-rule="evenodd" d="M11.2544 0.0866745C7.8554 0.546023 4.68324 2.39259 2.63814 5.10242C1.33617 6.82756 0.548213 8.64446 0.13464 10.8753C-0.0174017 11.6954 -0.0472413 13.7183 0.0789088 14.6549C0.417825 17.171 1.43469 19.4781 3.05862 21.4149C4.79697 23.4883 7.32067 25.0328 10.0063 25.6668C11.9527 26.1263 14.2503 26.1097 16.1728 25.6223C21.3716 24.3042 25.2214 19.9704 25.9111 14.6596C25.9604 14.2795 26 13.5381 26 12.9939C26 11.4505 25.8095 10.262 25.3325 8.83084C23.7663 4.13073 19.6196 0.731875 14.6581 0.0816246C13.812 -0.0292946 12.0935 -0.0267406 11.2544 0.0866745ZM11.7769 1.91478C7.70829 2.3822 4.24773 5.00195 2.70054 8.7858C2.15989 10.108 1.8983 11.4691 1.89732 12.9649C1.89563 15.5862 2.75146 17.9882 4.41039 20.0182C4.69712 20.3691 4.78989 20.4503 4.81851 20.3753C4.83888 20.3219 4.93578 20.0242 5.03383 19.7136C5.70713 17.5818 7.23237 15.8092 9.26424 14.7974C10.5673 14.1486 11.8438 13.8807 13.3444 13.9412C15.3053 14.0203 17.0376 14.709 18.5375 16.0056C19.7453 17.0498 20.7235 18.6494 21.124 20.2354L21.1864 20.4828L21.4101 20.2244C22.4676 19.0028 23.2764 17.4875 23.7049 15.925C24.8429 11.7753 23.4631 7.25922 20.2237 4.53157C18.1267 2.76592 15.5571 1.82795 12.8967 1.85726C12.5203 1.86138 12.0164 1.88727 11.7769 1.91478ZM12.2123 3.74469C11.1923 3.95666 10.483 4.31745 9.78179 4.98094C8.84643 5.86597 8.35309 7.02252 8.35216 8.3322C8.35129 9.60855 8.75679 10.6407 9.61744 11.5529C10.5181 12.5074 11.6663 12.9944 13.0143 12.9935C14.3242 12.9925 15.481 12.4993 16.3662 11.5641C17.1979 10.6855 17.5729 9.80421 17.6249 8.60598C17.6604 7.78509 17.5904 7.29956 17.3445 6.66191C16.793 5.2322 15.4773 4.10571 13.991 3.79077C13.6393 3.71625 12.4922 3.68653 12.2123 3.74469ZM12.5904 5.62945C11.4521 5.77165 10.4321 6.79651 10.2722 7.95869C9.97272 10.1338 12.2353 11.7833 14.1944 10.8182C15.5647 10.1432 16.1294 8.50209 15.4593 7.14232C14.9246 6.05745 13.8213 5.47563 12.5904 5.62945ZM12.2123 15.6098C9.15144 16.0263 6.81734 18.4452 6.55947 21.4681C6.53358 21.7714 6.51483 22.0229 6.51773 22.0272C6.577 22.1122 7.62638 22.7252 8.14857 22.9799C11.2292 24.4823 14.6862 24.4925 17.7947 23.0082C18.151 22.8381 18.6757 22.5484 18.9608 22.3645L19.4792 22.0301L19.458 21.7346C19.3314 19.9754 18.6819 18.5526 17.4761 17.3932C16.531 16.4843 15.4616 15.924 14.2179 15.6861C13.6453 15.5765 12.7167 15.5411 12.2123 15.6098Z" fill="white"/>
</svg>
