<svg width="26" height="26" viewBox="0 0 26 26" fill="none" xmlns="http://www.w3.org/2000/svg">
<path d="M3.25 6.50033L6.5 2.16699H19.5L22.75 6.50033M3.25 6.50033V21.667C3.25 22.2416 3.47827 22.7927 3.8846 23.1991C4.29093 23.6054 4.84203 23.8337 5.41667 23.8337H20.5833C21.158 23.8337 21.7091 23.6054 22.1154 23.1991C22.5217 22.7927 22.75 22.2416 22.75 21.667V6.50033M3.25 6.50033H22.75M17.3333 10.8337C17.3333 11.9829 16.8768 13.0851 16.0641 13.8978C15.2515 14.7104 14.1493 15.167 13 15.167C11.8507 15.167 10.7485 14.7104 9.93587 13.8978C9.12321 13.0851 8.66667 11.9829 8.66667 10.8337" stroke="white" stroke-width="2" stroke-linecap="round" stroke-linejoin="round"/>
</svg>
