<svg width="26" height="26" viewBox="0 0 26 26" fill="none" xmlns="http://www.w3.org/2000/svg">
<circle cx="13" cy="13" r="13" fill="white"/>
<path fill-rule="evenodd" clip-rule="evenodd" d="M10.7919 0.137686C9.04807 0.442772 7.259 1.16309 5.73898 2.17188C4.67717 2.87661 2.89665 4.63201 2.23817 5.62333C0.720121 7.90871 -0.0010326 10.2839 1.10968e-06 12.9946C0.00131674 16.6047 1.27776 19.6775 3.82464 22.2017C6.3935 24.7476 9.41871 26 13.0002 26C16.5818 26 19.607 24.7476 22.1758 22.2017C24.7231 19.677 26 16.6029 26 12.9946C26 9.38635 24.7231 6.31219 22.1758 3.78755C20.1655 1.79505 17.8655 0.59771 15.1686 0.139658C14.077 -0.0457044 11.8455 -0.0467373 10.7919 0.137686ZM16.0544 8.77899C14.6589 9.32052 12.2696 10.2438 10.7449 10.8306C5.54022 12.8339 5.48431 12.8574 5.32258 13.104C5.18087 13.3201 5.18265 13.3472 5.35011 13.5138C5.50104 13.6639 8.6797 14.7318 8.97581 14.7318C9.0289 14.7318 10.5587 13.7931 12.3754 12.6457C14.1921 11.4984 15.9086 10.4209 16.1898 10.2512C16.6927 9.94788 16.9471 9.86956 16.9471 10.0181C16.9471 10.0595 15.5736 11.3328 13.8949 12.8478C11.3513 15.143 10.8352 15.6507 10.7978 15.8947C10.7731 16.0556 10.7283 16.631 10.6983 17.1732C10.6684 17.7155 10.6195 18.3387 10.5897 18.5583C10.499 19.227 10.8071 19.1067 11.8782 18.0551C12.5 17.4447 12.8364 17.1771 12.9184 17.2277C12.985 17.2688 13.7743 17.8439 14.6723 18.5055C16.4166 19.7907 16.6692 19.8981 17.0323 19.5087C17.1348 19.3986 17.2658 19.0923 17.3233 18.8279C17.9115 16.1254 19.4844 8.56424 19.4844 8.43935C19.4844 8.15586 19.1166 7.7826 18.8432 7.7887C18.7049 7.79189 17.4499 8.23746 16.0544 8.77899Z" fill="#2CA0D8"/>
</svg>
