<svg width="26" height="26" viewBox="0 0 26 26" fill="none" xmlns="http://www.w3.org/2000/svg">
<circle cx="13" cy="13" r="13" fill="#0DC242"/>
<path fill-rule="evenodd" clip-rule="evenodd" d="M12.3162 5.66565C11.8253 5.71184 11.1892 5.85038 10.6634 6.02563C8.79265 6.64915 7.2312 8.03228 6.36763 9.83093C5.8511 10.9067 5.62747 12.0006 5.66705 13.2579C5.70187 14.3641 5.93087 15.2828 6.41604 16.2627L6.6223 16.6793L6.12468 18.52C5.85096 19.5325 5.62989 20.3636 5.63334 20.3671C5.63683 20.3705 6.48587 20.1733 7.52014 19.9289C8.5544 19.6845 9.4257 19.4842 9.45638 19.4837C9.48705 19.4833 9.65888 19.5524 9.83824 19.6372C10.4453 19.9245 11.0916 20.1277 11.8159 20.2588C12.2412 20.3357 13.2756 20.3645 13.7684 20.313C16.8275 19.9936 19.3806 17.7949 20.1463 14.8204C20.312 14.1767 20.3674 13.7152 20.3666 12.9851C20.3658 12.2616 20.3148 11.8358 20.1491 11.1706C19.9077 10.2012 19.4208 9.21944 18.7765 8.40309C18.5291 8.08964 17.9237 7.48477 17.6099 7.23765C16.1096 6.05573 14.1992 5.48843 12.3162 5.66565ZM12.2817 7.17932C10.1884 7.44448 8.36639 8.85387 7.57648 10.819C7.27781 11.5619 7.1594 12.1929 7.1635 13.0195C7.16923 14.1735 7.43484 15.0856 8.08414 16.1806L8.24155 16.4461L7.98764 17.3871C7.84796 17.9047 7.7361 18.3298 7.73907 18.3317C7.742 18.3337 8.18559 18.231 8.72482 18.1035L9.70519 17.8717L10.2258 18.1412C10.7819 18.4291 11.2852 18.6151 11.8047 18.7244C13.7694 19.1381 15.8025 18.517 17.2117 17.0724C18.7387 15.5072 19.2636 13.2235 18.5752 11.1408C17.9676 9.3028 16.3955 7.82594 14.5237 7.33465C13.851 7.15805 12.945 7.09532 12.2817 7.17932ZM10.1528 9.6403C9.90114 9.74965 9.51459 10.2535 9.37688 10.6517C9.30887 10.8483 9.29711 10.9509 9.29711 11.3477C9.29711 11.7472 9.30898 11.8492 9.38085 12.0684C9.69684 13.0324 10.8754 14.5485 11.9119 15.3244C12.4868 15.7547 12.9612 15.9938 13.7848 16.2686C14.4327 16.4847 14.6773 16.5291 15.1239 16.512C15.4944 16.4979 15.5218 16.4914 15.8169 16.3487C16.0456 16.2382 16.1836 16.1416 16.3564 15.9715C16.5581 15.7727 16.5979 15.7122 16.6598 15.5093C16.699 15.3809 16.7413 15.1759 16.7538 15.0536C16.7882 14.7186 16.773 14.7044 15.9614 14.3131C15.1421 13.9181 14.9686 13.8491 14.8623 13.8757C14.8161 13.8873 14.6651 14.0439 14.5009 14.2504C14.1272 14.7205 14.0169 14.8293 13.9141 14.8293C13.7786 14.8293 13.0168 14.4428 12.6826 14.2045C12.157 13.8298 11.6283 13.2546 11.2938 12.6936C11.145 12.4441 11.1466 12.4376 11.4347 12.106C11.6536 11.8541 11.7987 11.6001 11.7987 11.4687C11.7987 11.3805 11.3239 10.188 11.1606 9.86599C11.1089 9.76395 11.0326 9.6734 10.9721 9.64213C10.8403 9.57402 10.3081 9.57284 10.1528 9.6403Z" fill="white"/>
</svg>
